<svg width="180" height="180" viewBox="0 0 180 180" fill="none" xmlns="http://www.w3.org/2000/svg">
  <rect width="180" height="180" rx="22" fill="#3b82f6"/>
  <rect x="22" y="34" width="136" height="124" rx="11" fill="white"/>
  <rect x="22" y="34" width="136" height="22" fill="#3b82f6"/>
  <circle cx="45" cy="45" r="2.5" fill="white"/>
  <circle cx="67" cy="45" r="2.5" fill="white"/>
  <circle cx="89" cy="45" r="2.5" fill="white"/>
  <circle cx="111" cy="45" r="2.5" fill="white"/>
  <circle cx="133" cy="45" r="2.5" fill="white"/>
  <rect x="34" y="68" width="18" height="18" rx="3" fill="#3b82f6"/>
  <rect x="67" y="68" width="18" height="18" rx="3" fill="#3b82f6"/>
  <rect x="100" y="68" width="18" height="18" rx="3" fill="#3b82f6"/>
  <rect x="133" y="68" width="18" height="18" rx="3" fill="#3b82f6"/>
  <rect x="34" y="102" width="18" height="18" rx="3" fill="#3b82f6"/>
  <rect x="67" y="102" width="18" height="18" rx="3" fill="#3b82f6"/>
  <rect x="100" y="102" width="18" height="18" rx="3" fill="#3b82f6"/>
  <rect x="133" y="102" width="18" height="18" rx="3" fill="#3b82f6"/>
  <rect x="34" y="136" width="18" height="18" rx="3" fill="#3b82f6"/>
  <rect x="67" y="136" width="18" height="18" rx="3" fill="#3b82f6"/>
  <rect x="100" y="136" width="18" height="18" rx="3" fill="#3b82f6"/>
  <rect x="133" y="136" width="18" height="18" rx="3" fill="#3b82f6"/>
</svg> 