<svg width="192" height="192" viewBox="0 0 192 192" fill="none" xmlns="http://www.w3.org/2000/svg">
  <rect width="192" height="192" rx="24" fill="#3b82f6"/>
  <rect x="24" y="36" width="144" height="132" rx="12" fill="white"/>
  <rect x="24" y="36" width="144" height="24" fill="#3b82f6"/>
  <circle cx="48" cy="48" r="3" fill="white"/>
  <circle cx="72" cy="48" r="3" fill="white"/>
  <circle cx="96" cy="48" r="3" fill="white"/>
  <circle cx="120" cy="48" r="3" fill="white"/>
  <circle cx="144" cy="48" r="3" fill="white"/>
  <rect x="36" y="72" width="24" height="24" rx="4" fill="#3b82f6"/>
  <rect x="72" y="72" width="24" height="24" rx="4" fill="#3b82f6"/>
  <rect x="108" y="72" width="24" height="24" rx="4" fill="#3b82f6"/>
  <rect x="144" y="72" width="24" height="24" rx="4" fill="#3b82f6"/>
  <rect x="36" y="108" width="24" height="24" rx="4" fill="#3b82f6"/>
  <rect x="72" y="108" width="24" height="24" rx="4" fill="#3b82f6"/>
  <rect x="108" y="108" width="24" height="24" rx="4" fill="#3b82f6"/>
  <rect x="144" y="108" width="24" height="24" rx="4" fill="#3b82f6"/>
  <rect x="36" y="144" width="24" height="24" rx="4" fill="#3b82f6"/>
  <rect x="72" y="144" width="24" height="24" rx="4" fill="#3b82f6"/>
  <rect x="108" y="144" width="24" height="24" rx="4" fill="#3b82f6"/>
  <rect x="144" y="144" width="24" height="24" rx="4" fill="#3b82f6"/>
</svg> 