<svg width="512" height="512" viewBox="0 0 512 512" fill="none" xmlns="http://www.w3.org/2000/svg">
  <rect width="512" height="512" rx="64" fill="#3b82f6"/>
  <rect x="64" y="96" width="384" height="352" rx="32" fill="white"/>
  <rect x="64" y="96" width="384" height="64" fill="#3b82f6"/>
  <circle cx="128" cy="128" r="8" fill="white"/>
  <circle cx="192" cy="128" r="8" fill="white"/>
  <circle cx="256" cy="128" r="8" fill="white"/>
  <circle cx="320" cy="128" r="8" fill="white"/>
  <circle cx="384" cy="128" r="8" fill="white"/>
  <rect x="96" y="192" width="64" height="64" rx="8" fill="#3b82f6"/>
  <rect x="192" y="192" width="64" height="64" rx="8" fill="#3b82f6"/>
  <rect x="288" y="192" width="64" height="64" rx="8" fill="#3b82f6"/>
  <rect x="384" y="192" width="64" height="64" rx="8" fill="#3b82f6"/>
  <rect x="96" y="288" width="64" height="64" rx="8" fill="#3b82f6"/>
  <rect x="192" y="288" width="64" height="64" rx="8" fill="#3b82f6"/>
  <rect x="288" y="288" width="64" height="64" rx="8" fill="#3b82f6"/>
  <rect x="384" y="288" width="64" height="64" rx="8" fill="#3b82f6"/>
  <rect x="96" y="384" width="64" height="64" rx="8" fill="#3b82f6"/>
  <rect x="192" y="384" width="64" height="64" rx="8" fill="#3b82f6"/>
  <rect x="288" y="384" width="64" height="64" rx="8" fill="#3b82f6"/>
  <rect x="384" y="384" width="64" height="64" rx="8" fill="#3b82f6"/>
</svg> 